<svg enable-background="new 0 0 100 100" viewBox="0 0 100 100" xmlns="http://www.w3.org/2000/svg"><path d="m48.9 97.6 1.1.4 1.1-.4c36.4-12.9 47.1-38.9 47.5-40l.4-1.1-.3-1.1c-7.7-24.4-6-41.1-6-41.2l.3-2.4-2.2-.9c-18.3-7.7-39.7-8.8-40.6-8.9h-.2-.2c-.9 0-22.3 1.1-40.5 8.9l-2.2.9.2 2.4c0 .2 1.6 16.8-6 41.2l-.3 1.1.4 1.1c.5 1.1 11.1 27 47.5 40z" fill="#fff"/><path d="m84.8 17.5c-15.8-6.7-34.8-7.6-34.8-7.6s-19 .9-34.8 7.6c0 0 1.6 15.2-5.4 37.7 0 0 4 24.1 40.2 33.7 36.3-9.6 40.3-33.7 40.3-33.7-7.1-22.4-5.5-37.7-5.5-37.7" fill="#39b54a"/><path d="m50 69.7c14.8 0 27.6-9.2 34.3-22.9-6.7-13.5-19.5-22.8-34.3-22.8s-27.6 9.2-34.3 22.9c6.7 13.6 19.5 22.8 34.3 22.8" fill="#0f183e"/><path d="m50 64.8c12.2 0 22.9-7.2 28.4-17.9-5.5-10.7-16.2-17.9-28.4-17.9s-22.9 7.2-28.4 17.9c5.5 10.7 16.2 17.9 28.4 17.9" fill="#fff"/><g fill="#0f183e"><path d="m43 33v8.2c-1.1.1-2.1.3-3.2.5v-8.2c1.1-.2 2.2-.4 3.2-.5"/><path d="m60.2 33.3v8.2c-1-.2-2.1-.3-3.2-.4v-8.2c1 .1 2.1.3 3.2.4"/><path d="m48.7 32.6v8.2c-1.1 0-2.1.1-3.2.2v-8.2c1.1-.1 2.2-.2 3.2-.2"/><path d="m54.5 32.7v8.2c-1.1-.1-2.1-.1-3.2-.1v-8.2c1 0 2.1 0 3.2.1"/><path d="m20.5 50.2c1.9-7 14.6-12.6 29.5-12.6 14.8 0 27.5 5.6 29.5 12.5.7-1.1 1.3-2.1 1.9-3.3-.1-.1-.1-.2-.2-.4-4.2-7-16.4-11.9-31.2-11.9s-27 5-31.2 12c0 .1-.1.2-.2.3.6 1.2 1.2 2.3 1.9 3.4"/><path d="m50 11.8c2.4.2 18.3 1.3 32.8 6.5-.1 6.9.7 20.3 5.9 37.7-2.9 5.6-13.4 22.1-38.7 31.8-12.5-4.8-22.8-11.7-30.9-20.7-4.2-4.7-6.7-8.8-7.9-11.1 5.2-17.4 5.9-30.9 5.9-37.7 14.6-5.2 30.5-6.4 32.9-6.5m0-6.4s-21.6 1-39.4 8.6c0 0 1.8 17.1-6.2 42.5 0 0 10.1 25.5 45.6 38.1 35.4-12.6 45.6-38.1 45.6-38.1-8-25.5-6.2-42.5-6.2-42.5-17.8-7.6-39.4-8.6-39.4-8.6"/></g></svg>